<?xml version="1.0" encoding="UTF-8"?>
<svg width="70px" height="70px" viewBox="0 0 70 70" version="1.1" xmlns="http://www.w3.org/2000/svg" xmlns:xlink="http://www.w3.org/1999/xlink">
    <!-- Generator: Sketch 56.3 (81716) - https://sketch.com -->
    <title>Group 2 Copy</title>
    <desc>Created with Sketch.</desc>
    <g id="Page-1" stroke="none" stroke-width="1" fill="none" fill-rule="evenodd">
        <g id="Group-2-Copy">
            <circle id="Oval-Copy" fill="#006EFF" cx="35" cy="35" r="35"></circle>
            <path d="M27.1532012,28.9757596 L28.2922292,26.5271003 L29.4313859,28.9757596 L27.1532012,28.9757596 Z M29.1887329,24.5999004 L32.681855,32.1091481 L31.2077961,32.7947778 L30.1875214,30.6015088 L26.396937,30.6015088 L25.4170616,32.7078036 L23.9431313,32.0221738 L27.3957255,24.5999004 L27.6819943,23.9846478 C27.9176996,23.4777269 28.6357517,23.4705219 28.8816212,23.9726824 L29.1887329,24.5999004 Z M43.3090261,37.4030615 L44.9347754,37.4030615 L44.9347754,40.4656869 L46.834442,40.4656869 L46.834442,42.0913074 L44.9347754,42.0913074 L44.9347754,46.4778454 L43.3090261,46.4778454 L43.3090261,37.4030615 Z M38.4908078,43.4181792 C39.4535714,42.5251493 40.0802748,41.3266804 40.2629722,40.0241254 L40.2843298,39.8720491 L37.4109634,39.8720491 L37.4109634,38.2462999 L42.0799103,38.2462999 L42.0799103,39.8720491 L41.7195333,41.3311835 C41.4457446,42.440105 40.8456738,43.4414667 39.9970317,44.2059651 L38.4341973,45.6137641 L37.3604,44.167753 L38.3357723,43.5375758 C38.3907102,43.5020656 38.4429462,43.4625669 38.4908078,43.4181792 Z" id="s_translator" fill="#FFFFFF"></path>
            <path d="M27.1532012,35.4703125 L19.5647949,35.4703125 C19.3714953,35.4703125 19.2147949,35.3136122 19.2147949,35.1203125 L19.2147949,21.1869629 C19.2147949,20.9936632 19.3714953,20.8369629 19.5647949,20.8369629 L36.8706543,20.8369629 C37.063954,20.8369629 37.2206543,20.9936632 37.2206543,21.1869629 L37.2206543,29.5136818 C37.2206543,29.5920385 37.1943608,29.6681288 37.1459841,29.7297686 L30.9039903,37.6830856 C30.5653534,38.1145642 30.3812988,38.6471965 30.3812988,39.1956932 L30.3812988,48.8824219 C30.3812988,50.2355195 31.4782012,51.3324219 32.8312988,51.3324219 L49.9245605,51.3324219 C51.2776582,51.3324219 52.3745605,50.2355195 52.3745605,48.8824219 L52.3745605,35.4918457 C52.3745605,34.1387481 51.2776582,33.0418457 49.9245605,33.0418457 L43.3090261,33.0418457 L43.3090261,35.1418457 L49.9245605,35.1418457 C50.1178602,35.1418457 50.2745605,35.298546 50.2745605,35.4918457 L50.2745605,48.8824219 C50.2745605,49.0757215 50.1178602,49.2324219 49.9245605,49.2324219 L32.8312988,49.2324219 C32.6379992,49.2324219 32.4812988,49.0757215 32.4812988,48.8824219 L32.4812988,39.1956932 C32.4812988,39.1173365 32.5075923,39.0412462 32.555969,38.9796064 L38.7979628,31.0262894 C39.1365997,30.5948108 39.3206543,30.0621785 39.3206543,29.5136818 L39.3206543,21.1869629 C39.3206543,19.8338653 38.2237519,18.7369629 36.8706543,18.7369629 L19.5647949,18.7369629 C18.2116973,18.7369629 17.1147949,19.8338653 17.1147949,21.1869629 L17.1147949,35.1203125 C17.1147949,36.4734101 18.2116973,37.5703125 19.5647949,37.5703125 L27.1532012,37.5703125 L27.1532012,35.4703125 Z" id="Path-17" fill="#FFFFFF" fill-rule="nonzero"></path>
        </g>
    </g>
</svg>