<?xml version="1.0" encoding="utf-8"?>
<!-- Generator: Adobe Illustrator 22.1.0, SVG Export Plug-In . SVG Version: 6.00 Build 0)  -->

<svg version="1.1" id="图层_1" xmlns="http://www.w3.org/2000/svg" xmlns:xlink="http://www.w3.org/1999/xlink" x="0px" y="0px"
	 viewBox="0 0 116 76" style="enable-background:new 0 0 116 76;" xml:space="preserve">
<style type="text/css">
	.st0{fill:url(#path-2_3_);}
	.st1{filter:url(#Adobe_OpacityMaskFilter);}
	.st2{fill:#FFFFFF;}
	.st3{opacity:0.3;mask:url(#mask-3_1_);}
	.st4{opacity:0.11;fill:none;stroke:#7FB6FF;enable-background:new    ;}
	.st5{opacity:0.1;fill:none;stroke:#7FB6FF;enable-background:new    ;}
	.st6{opacity:0.2;fill:none;stroke:#7FB6FF;enable-background:new    ;}
	.st7{opacity:0.3;fill:none;stroke:#7FB6FF;enable-background:new    ;}
	.st8{opacity:0.4;fill:none;stroke:#7FB6FF;enable-background:new    ;}
	.st9{opacity:0.5;fill:none;stroke:#7FB6FF;enable-background:new    ;}
	.st10{opacity:0.6;fill:none;stroke:#7FB6FF;enable-background:new    ;}
	.st11{opacity:0.7;fill:none;stroke:#7FB6FF;enable-background:new    ;}
	.st12{opacity:0.8;fill:none;stroke:#7FB6FF;enable-background:new    ;}
	.st13{opacity:0.9;fill:none;stroke:#7FB6FF;enable-background:new    ;}
	.st14{fill:none;stroke:#7FB6FF;}
	.st15{fill:url(#Rectangle-Copy-10_1_);}
	.st16{fill:#A9A9A9;}
	.st17{font-family:'PingFang-SC-Bold';}
	.st18{font-size:10px;}
	.st19{fill:none;stroke:#A5936F;stroke-width:0.3;}
</style>
<title>Group 13</title>
<desc>Created with Sketch.</desc>
<g id="Page-1_1_">
	<g id="Group-13">
		<g id="Page-1-Copy">
			<g id="Mask">

					<linearGradient id="path-2_3_" gradientUnits="userSpaceOnUse" x1="-244.766" y1="429.9612" x2="-244.1075" y2="429.6971" gradientTransform="matrix(116 0 0 -76 28405 32703)">
					<stop  offset="0" style="stop-color:#000000"/>
					<stop  offset="8.700502e-02" style="stop-color:#000408"/>
					<stop  offset="0.4573" style="stop-color:#001326"/>
					<stop  offset="0.7746" style="stop-color:#001D38"/>
					<stop  offset="1" style="stop-color:#00203F"/>
				</linearGradient>
				<path id="path-2_1_" class="st0" d="M3,0h110c1.7,0,3,1.3,3,3v70c0,1.7-1.3,3-3,3H3c-1.7,0-3-1.3-3-3V3C0,1.3,1.3,0,3,0z"/>
			</g>
			<defs>
				<filter id="Adobe_OpacityMaskFilter" filterUnits="userSpaceOnUse" x="-148" y="7.5" width="500" height="56.6">
					<feColorMatrix  type="matrix" values="1 0 0 0 0  0 1 0 0 0  0 0 1 0 0  0 0 0 1 0"/>
				</filter>
			</defs>
			<mask maskUnits="userSpaceOnUse" x="-148" y="7.5" width="500" height="56.6" id="mask-3_1_">
				<g class="st1">
					<path id="path-2_2_" class="st2" d="M3,0h110c1.7,0,3,1.3,3,3v70c0,1.7-1.3,3-3,3H3c-1.7,0-3-1.3-3-3V3C0,1.3,1.3,0,3,0z"/>
				</g>
			</mask>
			<g id="Page-1" class="st3">
				<g transform="translate(-148.000000, 8.000000)">
					<path id="Stroke-1" class="st4" d="M500,53.4c-29.6,0-44.8,2.2-95.1,2.2s-60.3-29-122.3-29s-71.2,25.4-135.2,25.4
						c-36.5,0-70.6-4.6-103.9-4.6"/>
					<path id="Stroke-3" class="st4" d="M497.6,53.2c-29.6,0-45.2-1.3-95.5-1.3s-61-23.3-122.5-23.3c-60.8,0-70.4,20.9-133.7,20.9
						c-36.5,0-71.5-2.4-104.8-2.4"/>
					<path id="Stroke-5" class="st4" d="M494.7,53.2c-29.6,0-45.5-4.9-95.8-4.9S337.1,30,276.2,30c-59.7,0-69.5,17.1-132.3,17.1
						c-36.5,0-72.4-0.2-105.7-0.2"/>
					<path id="Stroke-7" class="st4" d="M491.8,53.2c-29.6,0-45.9-8.4-96.2-8.4s-62.4-12.9-122.9-12.9c-58.6,0-68.6,12.9-130.8,12.9
						c-36.5,0-73.2,1.9-106.6,1.9"/>
					<path id="Stroke-9" class="st4" d="M489.4,53.7c-29.6,0-46.2-12.1-96.6-12.1s-63.1-7.8-123.1-7.8c-57.5,0-67.8,9-129.4,9
						c-36.5,0-74.1,4.1-107.5,4.1"/>
					<path id="Stroke-11" class="st4" d="M486.5,53.2c-29.6,0-46.6-15.5-96.9-15.5c-50.3,0-63.7-2.4-123.3-2.4
						c-56.4,0-66.9,4.8-127.9,4.8c-36.5,0-75,6.2-108.3,6.2"/>
					<path id="Stroke-13" class="st5" d="M483.6,53.2c-29.6,0-47-18.9-97.3-18.9c-50.3,0-64.4,2.8-123.5,2.8
						c-55.3,0-66.1,0.8-126.5,0.8c-36.5,0-75.9,8.3-109.2,8.3"/>
					<path id="Stroke-15" class="st5" d="M481.1,53.7c-29.6,0-47.3-22.7-97.6-22.7c-50.3,0-65.1,8.1-123.7,8.1
						c-54.2,0-65.2-3.3-125.1-3.3C98.2,35.8,58,46.3,24.7,46.3"/>
					<path id="Stroke-17" class="st6" d="M478.2,53.7c-29.6,0-47.7-26.1-98-26.1s-65.8,13.3-123.9,13.3c-53.1,0-64.4-7.3-123.6-7.3
						c-36.5,0-77.6,12.6-111,12.6"/>
					<path id="Stroke-19" class="st7" d="M475.8,53.7c-29.6,0-48-29.5-98.3-29.5S311,42.7,253.4,42.7c-52,0-63.5-11.3-122.2-11.3
						C94.7,31.3,52.7,46,19.3,46"/>
					<path id="Stroke-21" class="st8" d="M472.9,54.2c-29.6,0-48.4-33.4-98.7-33.4s-67.2,24-124.3,24c-50.8,0-62.6-15.5-120.7-15.5
						c-36.5,0-79.4,17-112.7,17"/>
					<path id="Stroke-23" class="st9" d="M470,53.7c-29.6,0-48.7-36.8-99.1-36.8S303.1,46,246.4,46c-49.7,0-61.8-19.5-119.3-19.5
						c-36.5,0-80.3,19-113.6,19"/>
					<path id="Stroke-25" class="st10" d="M467.6,54.2c-29.6,0-49.1-40.6-99.4-40.6s-68.5,34.7-124.7,34.7
						c-48.6,0-60.9-23.8-117.8-23.8c-36.5,0-81.2,21.3-114.5,21.3"/>
					<path id="Stroke-27" class="st11" d="M464.7,54.2c-29.6,0-49.5-44-99.8-44c-50.3,0-69.2,39.8-124.9,39.8
						c-47.5,0-60.1-27.7-116.4-27.7c-36.5,0-82.1,23.4-115.4,23.4"/>
					<path id="Stroke-29" class="st12" d="M461.8,54.2c-29.6,0-49.8-47.4-100.1-47.4c-50.3,0-69.9,44.9-125.1,44.9
						c-46.4,0-59.2-31.7-114.9-31.7C85.1,20,38.7,45.5,5.3,45.5"/>
					<path id="Stroke-31" class="st13" d="M459.4,54.6c-29.6,0-50.2-51.3-100.5-51.3s-70.6,50.5-125.3,50.5
						c-45.3,0-58.3-36-113.5-36c-36.5,0-83.8,27.8-117.1,27.8"/>
					<path id="Stroke-33" class="st14" d="M456.5,54.7C426.9,54.7,405.9,0,355.6,0s-71.3,55.6-125.5,55.6
						c-44.2,0-57.5-39.9-112.1-39.9c-36.5,0-84.7,29.8-118,29.8"/>
				</g>
			</g>
		</g>
		
			<linearGradient id="Rectangle-Copy-10_1_" gradientUnits="userSpaceOnUse" x1="-232.2778" y1="406.7333" x2="-233.2778" y2="406.7333" gradientTransform="matrix(18 0 0 -12.8571 4211 5260.8569)">
			<stop  offset="0" style="stop-color:#FFE6B2"/>
			<stop  offset="1" style="stop-color:#E5B656"/>
		</linearGradient>
		<path id="Rectangle-Copy-10" class="st15" d="M14,25h14c1.1,0,2,0.9,2,2v8.9c0,1.1-0.9,2-2,2H14c-1.1,0-2-0.9-2-2V27
			C12,25.9,12.9,25,14,25z"/>
		<g id="Group-Copy" transform="translate(21.000000, 49.000000)">
			<rect id="Rectangle" class="st16" width="3" height="5"/>
			<rect id="Rectangle-Copy-12" x="18" class="st16" width="3" height="5"/>
			<rect id="Rectangle-Copy-14" x="37" class="st16" width="3" height="5"/>
			<rect id="Rectangle-Copy-16" x="51" class="st16" width="3" height="5"/>
			<rect id="Rectangle-Copy-18" x="73" class="st16" width="3" height="5"/>
			<rect id="Rectangle-Copy-11" x="7" class="st16" width="3" height="5"/>
			<rect id="Rectangle-Copy-13" x="25" class="st16" width="3" height="5"/>
			<rect id="Rectangle-Copy-15" x="44" class="st16" width="3" height="5"/>
			<rect id="Rectangle-Copy-17" x="58" class="st16" width="3" height="5"/>
			<rect id="Rectangle-Copy-19" x="80" class="st16" width="3" height="5"/>
		</g>
		<text transform="matrix(1 0 0 1 75 19)" class="st2 st17 st18">BANK</text>
		<g id="Group-2-Copy" transform="translate(12.000000, 25.000000)">
			<polyline id="Shape" class="st19" points="0,2 6,2 9,4 			"/>
			<rect id="Rectangle_1_" x="9" y="4" class="st19" width="5" height="5"/>
			<rect id="Rectangle_2_" x="10" y="5" class="st19" width="3" height="3"/>
			<polyline id="Shape_1_" class="st19" points="0,5 7,5 9,6.3 			"/>
			<polyline id="Shape_2_" class="st19" points="18,9 17,9 14,7 			"/>
			<polyline id="Path" class="st19" points="0,9 0,9 7,9 9,7.7 			"/>
			<path id="Path-7" class="st19" d="M11,4V0"/>
			<path id="Path-7-Copy" class="st19" d="M13,12.9V9"/>
		</g>
	</g>
</g>
</svg>
