

<svg width="116px" height="76px" viewBox="0 0 116 76" version="1.1" xmlns="http://www.w3.org/2000/svg" xmlns:xlink="http://www.w3.org/1999/xlink">
    <!-- Generator: Sketch 56.3 (81716) - https://sketch.com -->
    <title>Group 13</title>
    <desc>Created with Sketch.</desc>
    <defs>
        <linearGradient x1="10.15625%" y1="34.931211%" x2="76.0001347%" y2="61.3490265%" id="linearGradient-1">
            <stop stop-color="#4A536C" offset="0%"></stop>
            <stop stop-color="#282C35" offset="100%"></stop>
        </linearGradient>
        <rect id="path-2" x="0" y="0" width="116" height="76" rx="3"></rect>
        <linearGradient x1="100%" y1="50%" x2="0%" y2="50%" id="linearGradient-4">
            <stop stop-color="#FFE6B2" offset="0%"></stop>
            <stop stop-color="#E5B656" offset="100%"></stop>
        </linearGradient>
    </defs>
    <g id="Page-1" stroke="none" stroke-width="1" fill="none" fill-rule="evenodd">
        <g id="Group-13">
            <g id="Page-1-Copy">
                <mask id="mask-3" fill="white">
                    <use xlink:href="#path-2"></use>
                </mask>
                <use id="Mask" fill="url(#linearGradient-1)" xlink:href="#path-2"></use>
                <g id="Page-1" opacity="0.300000012" mask="url(#mask-3)" stroke="#7FB6FF">
                    <g transform="translate(-148.000000, 8.000000)">
                        <path d="M500,53.3750296 C470.393214,53.3750296 455.179673,55.6092843 404.866396,55.6092843 C354.553118,55.6092843 344.541352,26.5957447 282.603396,26.5957447 C220.66544,26.5957447 211.380283,51.9474545 147.444551,51.9474545 C110.935247,51.9474545 76.8511657,47.3960153 43.5203095,47.3960153" id="Stroke-1" opacity="0.109999999"></path>
                        <path d="M497.582205,53.1914894 C467.975419,53.1914894 452.404695,51.8679794 402.091418,51.8679794 C351.77814,51.8679794 341.083415,28.5299807 279.622945,28.5299807 C218.794864,28.5299807 209.258454,49.459573 145.908269,49.459573 C109.399496,49.459573 74.4333708,47.1063129 41.1025145,47.1063129" id="Stroke-3" opacity="0.109999999"></path>
                        <path d="M494.680851,53.1914894 C465.074065,53.1914894 449.146158,48.2902393 398.832881,48.2902393 C348.519603,48.2902393 337.141919,29.9806576 276.158935,29.9806576 C216.440729,29.9806576 206.652535,47.065597 143.888427,47.065597 C107.379655,47.065597 71.5320168,46.8382554 38.2011605,46.8382554" id="Stroke-5" opacity="0.109999999"></path>
                        <path d="M491.779497,53.1914894 C462.172711,53.1914894 445.887622,44.8091404 395.574344,44.8091404 C345.261067,44.8091404 333.200423,31.9148936 272.695457,31.9148936 C214.086594,31.9148936 204.047148,44.7953344 141.868586,44.7953344 C105.359813,44.7953344 68.6306628,46.7021516 35.2998066,46.7021516" id="Stroke-7" opacity="0.109999999"></path>
                        <path d="M489.361702,53.6750484 C459.754916,53.6750484 443.112644,41.6059282 392.799366,41.6059282 C342.486089,41.6059282 329.742486,33.8491296 269.715006,33.8491296 C212.216018,33.8491296 201.925319,42.8078903 140.332835,42.8078903 C103.823531,42.8078903 66.2128679,46.899081 32.8820116,46.899081" id="Stroke-9" opacity="0.109999999"></path>
                        <path d="M486.460348,53.1914894 C456.853562,53.1914894 439.853575,37.7216134 389.540829,37.7216134 C339.227552,37.7216134 325.80099,35.2998066 266.250996,35.2998066 C209.861883,35.2998066 199.3194,40.1114982 138.312994,40.1114982 C101.804221,40.1114982 63.3115139,46.2931707 29.9806576,46.2931707" id="Stroke-11" opacity="0.109999999"></path>
                        <path d="M483.558994,53.1914894 C453.952208,53.1914894 436.595038,34.3326886 386.28176,34.3326886 C335.969015,34.3326886 321.859494,37.1375934 262.786985,37.1375934 C207.507748,37.1375934 196.714012,37.8962322 136.293152,37.8962322 C99.7843798,37.8962322 60.4101599,46.1493992 27.0793037,46.1493992" id="Stroke-13" opacity="0.100000001"></path>
                        <path d="M481.141199,53.6750484 C451.534413,53.6750484 433.82006,30.9477756 383.506783,30.9477756 C333.194037,30.9477756 318.401557,39.0901773 259.807067,39.0901773 C205.637172,39.0901773 194.592184,35.7804324 134.75687,35.7804324 C98.2480972,35.7804324 57.992365,46.3195828 24.6615087,46.3195828" id="Stroke-15" opacity="0.100000001"></path>
                        <path d="M478.239845,53.6750484 C448.633059,53.6750484 430.561523,27.5628627 380.248246,27.5628627 C329.934968,27.5628627 314.460061,40.9053142 256.343057,40.9053142 C203.283037,40.9053142 191.986265,33.5654741 132.73756,33.5654741 C96.2282556,33.5654741 55.091011,46.1716508 21.7601547,46.1716508" id="Stroke-17" opacity="0.200000003"></path>
                        <path d="M475.82205,53.6750484 C446.215264,53.6750484 427.786545,24.1779497 377.473268,24.1779497 C327.15999,24.1779497 311.002124,42.6786902 253.362605,42.6786902 C201.412462,42.6786902 189.864436,31.3458009 131.201278,31.3458009 C94.6925054,31.3458009 52.673216,46.0132647 19.3423598,46.0132647" id="Stroke-19" opacity="0.300000012"></path>
                        <path d="M472.920696,54.1586074 C443.31391,54.1586074 424.528009,20.7930368 374.214731,20.7930368 C323.901454,20.7930368 307.060628,44.7711768 249.898595,44.7711768 C199.058327,44.7711768 187.259049,29.2454195 129.181436,29.2454195 C92.6726638,29.2454195 49.7718621,46.2165915 16.4410058,46.2165915" id="Stroke-21" opacity="0.400000006"></path>
                        <path d="M470.019342,53.6750484 C440.412557,53.6750484 421.269472,16.9245648 370.956194,16.9245648 C320.642917,16.9245648 303.119132,46.048213 246.435117,46.048213 C196.704192,46.048213 184.65313,26.5411252 127.161594,26.5411252 C90.6528222,26.5411252 46.8705081,45.5722354 13.5396518,45.5722354" id="Stroke-23" opacity="0.5"></path>
                        <path d="M467.601547,54.1586074 C437.994762,54.1586074 418.494494,13.5396518 368.181216,13.5396518 C317.867939,13.5396518 299.661195,48.2001504 243.454666,48.2001504 C194.833616,48.2001504 182.531301,24.4474593 125.625844,24.4474593 C89.1165396,24.4474593 44.4527131,45.7896861 11.1218569,45.7896861" id="Stroke-25" opacity="0.600000024"></path>
                        <path d="M464.700193,54.1586074 C435.093408,54.1586074 415.235425,10.1547389 364.92268,10.1547389 C314.609402,10.1547389 295.719699,49.9481179 239.990656,49.9481179 C192.479481,49.9481179 179.925914,22.2249156 123.606003,22.2249156 C87.0972303,22.2249156 41.5513592,45.6252631 8.2205029,45.6252631" id="Stroke-27" opacity="0.699999988"></path>
                        <path d="M461.798839,54.1586074 C432.192054,54.1586074 411.976888,6.76982592 361.66361,6.76982592 C311.350865,6.76982592 291.778203,51.6800064 236.526646,51.6800064 C190.125346,51.6800064 177.319995,20.0009379 121.586161,20.0009379 C85.0773888,20.0009379 38.6500052,45.4576464 5.31914894,45.4576464" id="Stroke-29" opacity="0.800000012"></path>
                        <path d="M459.381044,54.6421663 C429.774259,54.6421663 409.20191,3.38491296 358.888633,3.38491296 C308.575355,3.38491296 288.320266,53.8754269 233.546195,53.8754269 C188.25477,53.8754269 175.198166,17.9121833 120.049878,17.9121833 C83.5411062,17.9121833 36.2322102,45.6854268 2.90135397,45.6854268" id="Stroke-31" opacity="0.900000036"></path>
                        <path d="M456.479691,54.6513151 C426.872905,54.6513151 405.943373,0 355.630096,0 C305.316818,0 284.37877,55.6092843 230.082717,55.6092843 C185.900635,55.6092843 172.592779,15.689621 118.030569,15.689621 C81.5212646,15.689621 33.3308563,45.5230612 0,45.5230612" id="Stroke-33"></path>
                    </g>
                </g>
            </g>
            <rect id="Rectangle-Copy-10" fill="url(#linearGradient-4)" x="12" y="25" width="18" height="12.8571429" rx="2"></rect>
            <g id="Group-Copy" transform="translate(21.000000, 49.000000)" fill="#A9A9A9">
                <rect id="Rectangle" x="0" y="0" width="3" height="5"></rect>
                <rect id="Rectangle-Copy-12" x="18" y="0" width="3" height="5"></rect>
                <rect id="Rectangle-Copy-14" x="37" y="0" width="3" height="5"></rect>
                <rect id="Rectangle-Copy-16" x="51" y="0" width="3" height="5"></rect>
                <rect id="Rectangle-Copy-18" x="73" y="0" width="3" height="5"></rect>
                <rect id="Rectangle-Copy-11" x="7" y="0" width="3" height="5"></rect>
                <rect id="Rectangle-Copy-13" x="25" y="0" width="3" height="5"></rect>
                <rect id="Rectangle-Copy-15" x="44" y="0" width="3" height="5"></rect>
                <rect id="Rectangle-Copy-17" x="58" y="0" width="3" height="5"></rect>
                <rect id="Rectangle-Copy-19" x="80" y="0" width="3" height="5"></rect>
            </g>
            <text id="BANK-Copy" font-family="PingFangSC-Semibold, PingFang SC" font-size="10" font-weight="500" fill="#FFFFFF">
                <tspan x="75" y="19">BANK</tspan>
            </text>
            <g id="Group-2-Copy" transform="translate(12.000000, 25.000000)" stroke="#A5936F" stroke-width="0.3">
                <polyline id="Shape" points="9.09494702e-13 2 6 2 9 3.96275112"></polyline>
                <rect id="Rectangle" x="9" y="4" width="5" height="5"></rect>
                <rect id="Rectangle" x="10" y="5" width="3" height="3"></rect>
                <polyline id="Shape" points="4.4941828e-13 5 7 5 8.9507025 6.27624784"></polyline>
                <polyline id="Shape" transform="translate(16.000000, 7.981376) scale(-1, -1) translate(-16.000000, -7.981376) " points="14 7 15 7 18 8.96275112"></polyline>
                <polyline id="Path" transform="translate(4.489421, 8.315422) scale(1, -1) translate(-4.489421, -8.315422) " points="-4.97379915e-14 7.66809355 -4.97379915e-14 7.66809355 7 7.66809355 8.97884116 8.96275112"></polyline>
                <path d="M11,4 L11,0" id="Path-7"></path>
                <path d="M13,12.8571429 L13,9" id="Path-7-Copy"></path>
            </g>
        </g>
    </g>
</svg>