<?xml version="1.0" encoding="UTF-8"?>
<svg width="116px" height="76px" viewBox="0 0 116 76" version="1.1" xmlns="http://www.w3.org/2000/svg" xmlns:xlink="http://www.w3.org/1999/xlink">
    <!-- Generator: Sketch 56.3 (81716) - https://sketch.com -->
    <title>Group 12</title>
    <desc>Created with Sketch.</desc>
    <defs>
        <rect id="path-1" x="0" y="0" width="116" height="76" rx="3"></rect>
        <linearGradient x1="98.2391535%" y1="55.8169201%" x2="18.1411638%" y2="48.0508966%" id="linearGradient-3">
            <stop stop-color="#0880F0" offset="0%"></stop>
            <stop stop-color="#48B8FF" offset="100%"></stop>
        </linearGradient>
        <linearGradient x1="43.6401323%" y1="103.595353%" x2="62.5851364%" y2="17.1764949%" id="linearGradient-4">
            <stop stop-color="#045FD7" offset="0%"></stop>
            <stop stop-color="#003195" stop-opacity="0" offset="100%"></stop>
        </linearGradient>
        <linearGradient x1="0%" y1="50%" x2="100%" y2="55.1454456%" id="linearGradient-5">
            <stop stop-color="#045FD7" offset="0%"></stop>
            <stop stop-color="#003195" stop-opacity="0" offset="100%"></stop>
        </linearGradient>
    </defs>
    <g id="Page-1" stroke="none" stroke-width="1" fill="none" fill-rule="evenodd">
        <g id="Group-12">
            <g id="Rectangle-Copy-10">
                <mask id="mask-2" fill="white">
                    <use xlink:href="#path-1"></use>
                </mask>
                <rect stroke-opacity="0.153436407" stroke="#21476F" x="0.5" y="0.5" width="115" height="75" rx="3"></rect>
                <polygon id="Rectangle" fill="url(#linearGradient-3)" mask="url(#mask-2)" points="-21 25.8222656 103.286133 25.8222656 124 25.8222656 124 76 -21 76"></polygon>
                <polygon id="Path-2" fill="url(#linearGradient-4)" opacity="0.480236235" mask="url(#mask-2)" points="-34.6494141 7.00390625 41.9710968 76 58.3622467 76 -10.3339844 17.0410156"></polygon>
                <polygon id="Path-2" fill="url(#linearGradient-5)" mask="url(#mask-2)" transform="translate(85.182996, 50.911133) scale(-1, 1) translate(-85.182996, -50.911133) " points="19.5185611 25.8222656 90.7271254 76 150.847431 76 79.0042899 25.8222656"></polygon>
            </g>
            <path d="M15,41.5 L27.4014028,41.5" id="Path-6-Copy-6" stroke="#FFFFFF" stroke-width="2" opacity="0.858863467"></path>
            <path d="M39,41.5 L57.0515049,41.5" id="Path-6-Copy-7" stroke="#FFFFFF" stroke-width="2" opacity="0.858863467"></path>
            <path d="M15,52.5 L27.4014028,52.5" id="Path-6-Copy-8" stroke="#FFFFFF" stroke-width="2" opacity="0.858863467"></path>
            <path d="M39,52.5 L101.089879,52.5" id="Path-6-Copy-9" stroke="#FFFFFF" stroke-width="2" opacity="0.858863467"></path>
            <g id="Logo-Copy" transform="translate(15.000000, 8.000000)" fill="#006EFF" fill-rule="nonzero">
                <g id="Group">
                    <polygon id="Path" opacity="0.5" points="11.25 7.5 7.5 7.5 7.5 3.75 11.25 3.75 11.25 0 15 0 15 11.25 11.25 11.25"></polygon>
                    <polygon id="Path" points="7.5 11.25 0 11.25 0 0 7.5 0 7.5 3.75 3.75 3.75 3.75 7.5 7.5 7.5"></polygon>
                </g>
            </g>
            <path d="M40.5,13.625 L70.2119141,13.625" id="Path-6-Copy" stroke="#8CA0CB" stroke-width="3" opacity="0.520066034"></path>
        </g>
    </g>
</svg>