<?xml version="1.0" encoding="UTF-8"?>
<svg width="118px" height="78px" viewBox="0 0 118 78" version="1.1" xmlns="http://www.w3.org/2000/svg" xmlns:xlink="http://www.w3.org/1999/xlink">
    <!-- Generator: Sketch 56.3 (81716) - https://sketch.com -->
    <title>Group 2 Copy</title>
    <desc>Created with Sketch.</desc>
    <defs>
        <linearGradient x1="0%" y1="50%" x2="100%" y2="50%" id="linearGradient-1">
            <stop stop-color="#F9FBFE" offset="0%"></stop>
            <stop stop-color="#F7EFF9" offset="45.7502694%"></stop>
            <stop stop-color="#E7F4FD" offset="100%"></stop>
        </linearGradient>
        <rect id="path-2" x="0" y="0" width="116" height="76" rx="3"></rect>
    </defs>
    <g id="Page-1" stroke="none" stroke-width="1" fill="none" fill-rule="evenodd">
        <g id="Group-2-Copy" transform="translate(1.000000, 1.000000)">
            <g id="Combined-Shape_looper">
                <mask id="mask-3" fill="white">
                    <use xlink:href="#path-2"></use>
                </mask>
                <rect stroke="#ADC9DB" x="-0.5" y="-0.5" width="117" height="77" rx="3"></rect>
                <g id="Oval_looper" opacity="0.133300781" mask="url(#mask-3)" stroke="#4BB2F7" stroke-width="0.3">
                    <g transform="translate(81.905273, 35.953846) rotate(320.000000) translate(-81.905273, -35.953846) translate(1.905273, -62.636719)">
                        <ellipse id="Oval_100" transform="translate(80.000000, 98.590565) rotate(356.400000) translate(-80.000000, -98.590565) " cx="80" cy="98.5905649" rx="18.5905649" ry="97.6122321"></ellipse>
                        <ellipse id="Oval_99" transform="translate(80.000000, 98.590565) rotate(352.800000) translate(-80.000000, -98.590565) " cx="80" cy="98.5905649" rx="18.4041934" ry="96.6337825"></ellipse>
                        <ellipse id="Oval_98" transform="translate(80.000000, 98.590565) rotate(349.200000) translate(-80.000000, -98.590565) " cx="80" cy="98.5905649" rx="18.2178218" ry="95.655333"></ellipse>
                        <ellipse id="Oval_97" transform="translate(80.000000, 98.590565) rotate(345.600000) translate(-80.000000, -98.590565) " cx="80" cy="98.5905649" rx="18.0314502" ry="94.6768834"></ellipse>
                        <ellipse id="Oval_96" transform="translate(80.000000, 98.590565) rotate(342.000000) translate(-80.000000, -98.590565) " cx="80" cy="98.5905649" rx="17.8450786" ry="93.6984339"></ellipse>
                        <ellipse id="Oval_95" transform="translate(80.000000, 98.590565) rotate(338.400000) translate(-80.000000, -98.590565) " cx="80" cy="98.5905649" rx="17.658707" ry="92.7199845"></ellipse>
                        <ellipse id="Oval_94" transform="translate(80.000000, 98.590565) rotate(334.800000) translate(-80.000000, -98.590565) " cx="80" cy="98.5905649" rx="17.4723355" ry="91.741535"></ellipse>
                        <ellipse id="Oval_93" transform="translate(80.000000, 98.590565) rotate(331.200000) translate(-80.000000, -98.590565) " cx="80" cy="98.5905649" rx="17.2859639" ry="90.7630856"></ellipse>
                        <ellipse id="Oval_92" transform="translate(80.000000, 98.590565) rotate(327.600000) translate(-80.000000, -98.590565) " cx="80" cy="98.5905649" rx="17.0995923" ry="89.7846362"></ellipse>
                        <ellipse id="Oval_91" transform="translate(80.000000, 98.590565) rotate(324.000000) translate(-80.000000, -98.590565) " cx="80" cy="98.5905649" rx="16.9132207" ry="88.8061869"></ellipse>
                        <ellipse id="Oval_90" transform="translate(80.000000, 98.590565) rotate(320.400000) translate(-80.000000, -98.590565) " cx="80" cy="98.5905649" rx="16.7268492" ry="87.8277375"></ellipse>
                        <ellipse id="Oval_89" transform="translate(80.000000, 98.590565) rotate(316.800000) translate(-80.000000, -98.590565) " cx="80" cy="98.5905649" rx="16.5404776" ry="86.8492882"></ellipse>
                        <ellipse id="Oval_88" transform="translate(80.000000, 98.590565) rotate(313.200000) translate(-80.000000, -98.590565) " cx="80" cy="98.5905649" rx="16.354106" ry="85.870839"></ellipse>
                        <ellipse id="Oval_87" transform="translate(80.000000, 98.590565) rotate(309.600000) translate(-80.000000, -98.590565) " cx="80" cy="98.5905649" rx="16.1677344" ry="84.8923898"></ellipse>
                        <ellipse id="Oval_86" transform="translate(80.000000, 98.590565) rotate(306.000000) translate(-80.000000, -98.590565) " cx="80" cy="98.5905649" rx="15.9813628" ry="83.9139406"></ellipse>
                        <ellipse id="Oval_85" transform="translate(80.000000, 98.590565) rotate(302.400000) translate(-80.000000, -98.590565) " cx="80" cy="98.5905649" rx="15.7949913" ry="82.9354914"></ellipse>
                        <ellipse id="Oval_84" transform="translate(80.000000, 98.590565) rotate(298.800000) translate(-80.000000, -98.590565) " cx="80" cy="98.5905649" rx="15.6086197" ry="81.9570423"></ellipse>
                        <ellipse id="Oval_83" transform="translate(80.000000, 98.590565) rotate(295.200000) translate(-80.000000, -98.590565) " cx="80" cy="98.5905649" rx="15.4222481" ry="80.9785933"></ellipse>
                        <ellipse id="Oval_82" transform="translate(80.000000, 98.590565) rotate(291.600000) translate(-80.000000, -98.590565) " cx="80" cy="98.5905649" rx="15.2358765" ry="80.0001443"></ellipse>
                        <ellipse id="Oval_81" transform="translate(80.000000, 98.590565) rotate(288.000000) translate(-80.000000, -98.590565) " cx="80" cy="98.5905649" rx="15.049505" ry="79.0216953"></ellipse>
                        <ellipse id="Oval_80" transform="translate(80.000000, 98.590565) rotate(284.400000) translate(-80.000000, -98.590565) " cx="80" cy="98.5905649" rx="14.8631334" ry="78.0432463"></ellipse>
                        <ellipse id="Oval_79" transform="translate(80.000000, 98.590565) rotate(280.800000) translate(-80.000000, -98.590565) " cx="80" cy="98.5905649" rx="14.6767618" ry="77.0647975"></ellipse>
                        <ellipse id="Oval_78" transform="translate(80.000000, 98.590565) rotate(277.200000) translate(-80.000000, -98.590565) " cx="80" cy="98.5905649" rx="14.4903902" ry="76.0863486"></ellipse>
                        <ellipse id="Oval_77" transform="translate(80.000000, 98.590565) rotate(273.600000) translate(-80.000000, -98.590565) " cx="80" cy="98.5905649" rx="14.3040186" ry="75.1078998"></ellipse>
                        <ellipse id="Oval_76" transform="translate(80.000000, 98.590565) rotate(270.000000) translate(-80.000000, -98.590565) " cx="80" cy="98.5905649" rx="14.1176471" ry="74.1294511"></ellipse>
                        <ellipse id="Oval_75" transform="translate(80.000000, 98.590565) rotate(266.400000) translate(-80.000000, -98.590565) " cx="80" cy="98.5905649" rx="13.9312755" ry="73.1510024"></ellipse>
                        <ellipse id="Oval_74" transform="translate(80.000000, 98.590565) rotate(262.800000) translate(-80.000000, -98.590565) " cx="80" cy="98.5905649" rx="13.7449039" ry="72.1725538"></ellipse>
                        <ellipse id="Oval_73" transform="translate(80.000000, 98.590565) rotate(259.200000) translate(-80.000000, -98.590565) " cx="80" cy="98.5905649" rx="13.5585323" ry="71.1941053"></ellipse>
                        <ellipse id="Oval_72" transform="translate(80.000000, 98.590565) rotate(255.600000) translate(-80.000000, -98.590565) " cx="80" cy="98.5905649" rx="13.3721607" ry="70.2156568"></ellipse>
                        <ellipse id="Oval_71" transform="translate(80.000000, 98.590565) rotate(252.000000) translate(-80.000000, -98.590565) " cx="80" cy="98.5905649" rx="13.1857892" ry="69.2372084"></ellipse>
                        <ellipse id="Oval_70" transform="translate(80.000000, 98.590565) rotate(248.400000) translate(-80.000000, -98.590565) " cx="80" cy="98.5905649" rx="12.9994176" ry="68.25876"></ellipse>
                        <ellipse id="Oval_69" transform="translate(80.000000, 98.590565) rotate(244.800000) translate(-80.000000, -98.590565) " cx="80" cy="98.5905649" rx="12.813046" ry="67.2803117"></ellipse>
                        <ellipse id="Oval_68" transform="translate(80.000000, 98.590565) rotate(241.200000) translate(-80.000000, -98.590565) " cx="80" cy="98.5905649" rx="12.6266744" ry="66.3018635"></ellipse>
                        <ellipse id="Oval_67" transform="translate(80.000000, 98.590565) rotate(237.600000) translate(-80.000000, -98.590565) " cx="80" cy="98.5905649" rx="12.4403029" ry="65.3234154"></ellipse>
                        <ellipse id="Oval_66" transform="translate(80.000000, 98.590565) rotate(234.000000) translate(-80.000000, -98.590565) " cx="80" cy="98.5905649" rx="12.2539313" ry="64.3449673"></ellipse>
                        <ellipse id="Oval_65" transform="translate(80.000000, 98.590565) rotate(230.400000) translate(-80.000000, -98.590565) " cx="80" cy="98.5905649" rx="12.0675597" ry="63.3665194"></ellipse>
                        <ellipse id="Oval_64" transform="translate(80.000000, 98.590565) rotate(226.800000) translate(-80.000000, -98.590565) " cx="80" cy="98.5905649" rx="11.8811881" ry="62.3880715"></ellipse>
                        <ellipse id="Oval_63" transform="translate(80.000000, 98.590565) rotate(223.200000) translate(-80.000000, -98.590565) " cx="80" cy="98.5905649" rx="11.6948165" ry="61.4096237"></ellipse>
                        <ellipse id="Oval_62" transform="translate(80.000000, 98.590565) rotate(219.600000) translate(-80.000000, -98.590565) " cx="80" cy="98.5905649" rx="11.508445" ry="60.431176"></ellipse>
                        <ellipse id="Oval_61" transform="translate(80.000000, 98.590565) rotate(216.000000) translate(-80.000000, -98.590565) " cx="80" cy="98.5905649" rx="11.3220734" ry="59.4527284"></ellipse>
                        <ellipse id="Oval_60" transform="translate(80.000000, 98.590565) rotate(212.400000) translate(-80.000000, -98.590565) " cx="80" cy="98.5905649" rx="11.1357018" ry="58.474281"></ellipse>
                        <ellipse id="Oval_59" transform="translate(80.000000, 98.590565) rotate(208.800000) translate(-80.000000, -98.590565) " cx="80" cy="98.5905649" rx="10.9493302" ry="57.4958336"></ellipse>
                        <ellipse id="Oval_58" transform="translate(80.000000, 98.590565) rotate(205.200000) translate(-80.000000, -98.590565) " cx="80" cy="98.5905649" rx="10.7629586" ry="56.5173864"></ellipse>
                        <ellipse id="Oval_57" transform="translate(80.000000, 98.590565) rotate(201.600000) translate(-80.000000, -98.590565) " cx="80" cy="98.5905649" rx="10.5765871" ry="55.5389393"></ellipse>
                        <ellipse id="Oval_56" transform="translate(80.000000, 98.590565) rotate(198.000000) translate(-80.000000, -98.590565) " cx="80" cy="98.5905649" rx="10.3902155" ry="54.5604923"></ellipse>
                        <ellipse id="Oval_55" transform="translate(80.000000, 98.590565) rotate(194.400000) translate(-80.000000, -98.590565) " cx="80" cy="98.5905649" rx="10.2038439" ry="53.5820455"></ellipse>
                        <ellipse id="Oval_54" transform="translate(80.000000, 98.590565) rotate(190.800000) translate(-80.000000, -98.590565) " cx="80" cy="98.5905649" rx="10.0174723" ry="52.6035988"></ellipse>
                        <ellipse id="Oval_53" transform="translate(80.000000, 98.590565) rotate(187.200000) translate(-80.000000, -98.590565) " cx="80" cy="98.5905649" rx="9.83110076" ry="51.6251523"></ellipse>
                        <ellipse id="Oval_52" transform="translate(80.000000, 98.590565) rotate(183.600000) translate(-80.000000, -98.590565) " cx="80" cy="98.5905649" rx="9.64472918" ry="50.6467059"></ellipse>
                        <ellipse id="Oval_51" transform="translate(80.000000, 98.590565) rotate(180.000000) translate(-80.000000, -98.590565) " cx="80" cy="98.5905649" rx="9.4583576" ry="49.6682598"></ellipse>
                        <ellipse id="Oval_50" transform="translate(80.000000, 98.590565) rotate(176.400000) translate(-80.000000, -98.590565) " cx="80" cy="98.5905649" rx="9.27198602" ry="48.6898138"></ellipse>
                        <ellipse id="Oval_49" transform="translate(80.000000, 98.590565) rotate(172.800000) translate(-80.000000, -98.590565) " cx="80" cy="98.5905649" rx="9.08561444" ry="47.711368"></ellipse>
                        <ellipse id="Oval_48" transform="translate(80.000000, 98.590565) rotate(169.200000) translate(-80.000000, -98.590565) " cx="80" cy="98.5905649" rx="8.89924287" ry="46.7329224"></ellipse>
                        <ellipse id="Oval_47" transform="translate(80.000000, 98.590565) rotate(165.600000) translate(-80.000000, -98.590565) " cx="80" cy="98.5905649" rx="8.71287129" ry="45.7544771"></ellipse>
                        <ellipse id="Oval_46" transform="translate(80.000000, 98.590565) rotate(162.000000) translate(-80.000000, -98.590565) " cx="80" cy="98.5905649" rx="8.52649971" ry="44.776032"></ellipse>
                        <ellipse id="Oval_45" transform="translate(80.000000, 98.590565) rotate(158.400000) translate(-80.000000, -98.590565) " cx="80" cy="98.5905649" rx="8.34012813" ry="43.7975872"></ellipse>
                        <ellipse id="Oval_44" transform="translate(80.000000, 98.590565) rotate(154.800000) translate(-80.000000, -98.590565) " cx="80" cy="98.5905649" rx="8.15375655" ry="42.8191426"></ellipse>
                        <ellipse id="Oval_43" transform="translate(80.000000, 98.590565) rotate(151.200000) translate(-80.000000, -98.590565) " cx="80" cy="98.5905649" rx="7.96738497" ry="41.8406983"></ellipse>
                        <ellipse id="Oval_42" transform="translate(80.000000, 98.590565) rotate(147.600000) translate(-80.000000, -98.590565) " cx="80" cy="98.5905649" rx="7.7810134" ry="40.8622544"></ellipse>
                        <ellipse id="Oval_41" transform="translate(80.000000, 98.590565) rotate(144.000000) translate(-80.000000, -98.590565) " cx="80" cy="98.5905649" rx="7.59464182" ry="39.8838108"></ellipse>
                        <ellipse id="Oval_40" transform="translate(80.000000, 98.590565) rotate(140.400000) translate(-80.000000, -98.590565) " cx="80" cy="98.5905649" rx="7.40827024" ry="38.9053676"></ellipse>
                        <ellipse id="Oval_39" transform="translate(80.000000, 98.590565) rotate(136.800000) translate(-80.000000, -98.590565) " cx="80" cy="98.5905649" rx="7.22189866" ry="37.9269248"></ellipse>
                        <ellipse id="Oval_38" transform="translate(80.000000, 98.590565) rotate(133.200000) translate(-80.000000, -98.590565) " cx="80" cy="98.5905649" rx="7.03552708" ry="36.9484824"></ellipse>
                        <ellipse id="Oval_37" transform="translate(80.000000, 98.590565) rotate(129.600000) translate(-80.000000, -98.590565) " cx="80" cy="98.5905649" rx="6.8491555" ry="35.9700404"></ellipse>
                        <ellipse id="Oval_36" transform="translate(80.000000, 98.590565) rotate(126.000000) translate(-80.000000, -98.590565) " cx="80" cy="98.5905649" rx="6.66278393" ry="34.991599"></ellipse>
                        <ellipse id="Oval_35" transform="translate(80.000000, 98.590565) rotate(122.400000) translate(-80.000000, -98.590565) " cx="80" cy="98.5905649" rx="6.47641235" ry="34.0131582"></ellipse>
                        <ellipse id="Oval_34" transform="translate(80.000000, 98.590565) rotate(118.800000) translate(-80.000000, -98.590565) " cx="80" cy="98.5905649" rx="6.29004077" ry="33.0347179"></ellipse>
                        <ellipse id="Oval_33" transform="translate(80.000000, 98.590565) rotate(115.200000) translate(-80.000000, -98.590565) " cx="80" cy="98.5905649" rx="6.10366919" ry="32.0562783"></ellipse>
                        <ellipse id="Oval_32" transform="translate(80.000000, 98.590565) rotate(111.600000) translate(-80.000000, -98.590565) " cx="80" cy="98.5905649" rx="5.91729761" ry="31.0778395"></ellipse>
                        <ellipse id="Oval_31" transform="translate(80.000000, 98.590565) rotate(108.000000) translate(-80.000000, -98.590565) " cx="80" cy="98.5905649" rx="5.73092603" ry="30.0994014"></ellipse>
                        <ellipse id="Oval_30" transform="translate(80.000000, 98.590565) rotate(104.400000) translate(-80.000000, -98.590565) " cx="80" cy="98.5905649" rx="5.54455446" ry="29.1209643"></ellipse>
                        <ellipse id="Oval_29" transform="translate(80.000000, 98.590565) rotate(100.800000) translate(-80.000000, -98.590565) " cx="80" cy="98.5905649" rx="5.35818288" ry="28.1425281"></ellipse>
                        <ellipse id="Oval_28" transform="translate(80.000000, 98.590565) rotate(97.200000) translate(-80.000000, -98.590565) " cx="80" cy="98.5905649" rx="5.1718113" ry="27.164093"></ellipse>
                        <ellipse id="Oval_27" transform="translate(80.000000, 98.590565) rotate(93.600000) translate(-80.000000, -98.590565) " cx="80" cy="98.5905649" rx="4.98543972" ry="26.1856591"></ellipse>
                        <ellipse id="Oval_26" transform="translate(80.000000, 98.590565) rotate(90.000000) translate(-80.000000, -98.590565) " cx="80" cy="98.5905649" rx="4.79906814" ry="25.2072266"></ellipse>
                        <ellipse id="Oval_25" transform="translate(80.000000, 98.590565) rotate(86.400000) translate(-80.000000, -98.590565) " cx="80" cy="98.5905649" rx="4.61269656" ry="24.2287956"></ellipse>
                        <ellipse id="Oval_24" transform="translate(80.000000, 98.590565) rotate(82.800000) translate(-80.000000, -98.590565) " cx="80" cy="98.5905649" rx="4.42632499" ry="23.2503664"></ellipse>
                        <ellipse id="Oval_23" transform="translate(80.000000, 98.590565) rotate(79.200000) translate(-80.000000, -98.590565) " cx="80" cy="98.5905649" rx="4.23995341" ry="22.2719392"></ellipse>
                        <ellipse id="Oval_22" transform="translate(80.000000, 98.590565) rotate(75.600000) translate(-80.000000, -98.590565) " cx="80" cy="98.5905649" rx="4.05358183" ry="21.2935142"></ellipse>
                        <ellipse id="Oval_21" transform="translate(80.000000, 98.590565) rotate(72.000000) translate(-80.000000, -98.590565) " cx="80" cy="98.5905649" rx="3.86721025" ry="20.3150918"></ellipse>
                        <ellipse id="Oval_20" transform="translate(80.000000, 98.590565) rotate(68.400000) translate(-80.000000, -98.590565) " cx="80" cy="98.5905649" rx="3.68083867" ry="19.3366725"></ellipse>
                        <ellipse id="Oval_19" transform="translate(80.000000, 98.590565) rotate(64.800000) translate(-80.000000, -98.590565) " cx="80" cy="98.5905649" rx="3.49446709" ry="18.3582567"></ellipse>
                        <ellipse id="Oval_18" transform="translate(80.000000, 98.590565) rotate(61.200000) translate(-80.000000, -98.590565) " cx="80" cy="98.5905649" rx="3.30809552" ry="17.3798451"></ellipse>
                        <ellipse id="Oval_17" transform="translate(80.000000, 98.590565) rotate(57.600000) translate(-80.000000, -98.590565) " cx="80" cy="98.5905649" rx="3.12172394" ry="16.4014385"></ellipse>
                        <ellipse id="Oval_16" transform="translate(80.000000, 98.590565) rotate(54.000000) translate(-80.000000, -98.590565) " cx="80" cy="98.5905649" rx="2.93535236" ry="15.4230378"></ellipse>
                        <ellipse id="Oval_15" transform="translate(80.000000, 98.590565) rotate(50.400000) translate(-80.000000, -98.590565) " cx="80" cy="98.5905649" rx="2.74898078" ry="14.4446445"></ellipse>
                        <ellipse id="Oval_14" transform="translate(80.000000, 98.590565) rotate(46.800000) translate(-80.000000, -98.590565) " cx="80" cy="98.5905649" rx="2.5626092" ry="13.4662601"></ellipse>
                        <ellipse id="Oval_13" transform="translate(80.000000, 98.590565) rotate(43.200000) translate(-80.000000, -98.590565) " cx="80" cy="98.5905649" rx="2.37623762" ry="12.4878871"></ellipse>
                        <ellipse id="Oval_12" transform="translate(80.000000, 98.590565) rotate(39.600000) translate(-80.000000, -98.590565) " cx="80" cy="98.5905649" rx="2.18986605" ry="11.5095285"></ellipse>
                        <ellipse id="Oval_11" transform="translate(80.000000, 98.590565) rotate(36.000000) translate(-80.000000, -98.590565) " cx="80" cy="98.5905649" rx="2.00349447" ry="10.5311889"></ellipse>
                        <ellipse id="Oval_10" transform="translate(80.000000, 98.590565) rotate(32.400000) translate(-80.000000, -98.590565) " cx="80" cy="98.5905649" rx="1.81712289" ry="9.55287462"></ellipse>
                        <ellipse id="Oval_9" transform="translate(80.000000, 98.590565) rotate(28.800000) translate(-80.000000, -98.590565) " cx="80" cy="98.5905649" rx="1.63075131" ry="8.5745956"></ellipse>
                        <ellipse id="Oval_8" transform="translate(80.000000, 98.590565) rotate(25.200000) translate(-80.000000, -98.590565) " cx="80" cy="98.5905649" rx="1.44437973" ry="7.59636748"></ellipse>
                        <ellipse id="Oval_7" transform="translate(80.000000, 98.590565) rotate(21.600000) translate(-80.000000, -98.590565) " cx="80" cy="98.5905649" rx="1.25800815" ry="6.61821681"></ellipse>
                        <ellipse id="Oval_6" transform="translate(80.000000, 98.590565) rotate(18.000000) translate(-80.000000, -98.590565) " cx="80" cy="98.5905649" rx="1.07163658" ry="5.6401925"></ellipse>
                        <ellipse id="Oval_5" transform="translate(80.000000, 98.590565) rotate(14.400000) translate(-80.000000, -98.590565) " cx="80" cy="98.5905649" rx="1" ry="4.66239565"></ellipse>
                        <ellipse id="Oval_4" transform="translate(80.000000, 98.590565) rotate(10.800000) translate(-80.000000, -98.590565) " cx="80" cy="98.5905649" rx="1" ry="3.68507439"></ellipse>
                        <ellipse id="Oval_3" transform="translate(80.000000, 98.590565) rotate(7.200000) translate(-80.000000, -98.590565) " cx="80" cy="98.5905649" rx="1" ry="2.70904401"></ellipse>
                        <ellipse id="Oval_2" transform="translate(80.000000, 98.590565) rotate(3.600000) translate(-80.000000, -98.590565) " cx="80" cy="98.5905649" rx="1" ry="1.73946806"></ellipse>
                        <ellipse id="Oval_1" cx="80" cy="98.5905649" rx="1" ry="1"></ellipse>
                    </g>
                </g>
            </g>
            <path d="M62.1784557,28 L96.9670405,28 C97.5193252,28 97.9670405,28.4477153 97.9670405,29 C97.9670405,29.5522847 97.5193252,30 96.9670405,30 L62.1784557,30 C61.626171,30 61.1784557,29.5522847 61.1784557,29 C61.1784557,28.4477153 61.626171,28 62.1784557,28 Z" id="Rectangle-Copy-11" fill="#999999" opacity="0.461704799"></path>
            <path d="M62.1784557,16 L96.9670405,16 C97.5193252,16 97.9670405,16.4477153 97.9670405,17 C97.9670405,17.5522847 97.5193252,18 96.9670405,18 L62.1784557,18 C61.626171,18 61.1784557,17.5522847 61.1784557,17 C61.1784557,16.4477153 61.626171,16 62.1784557,16 Z" id="Rectangle-Copy-7" fill="#999999" opacity="0.461704799"></path>
            <path d="M62.1784557,40 L96.9670405,40 C97.5193252,40 97.9670405,40.4477153 97.9670405,41 C97.9670405,41.5522847 97.5193252,42 96.9670405,42 L62.1784557,42 C61.626171,42 61.1784557,41.5522847 61.1784557,41 C61.1784557,40.4477153 61.626171,40 62.1784557,40 Z" id="Rectangle-Copy-12" fill="#999999" opacity="0.461704799"></path>
            <path d="M34.4482759,59 L104.213451,59 C104.765736,59 105.213451,59.4477153 105.213451,60 C105.213451,60.5522847 104.765736,61 104.213451,61 L34.4482759,61 C33.8959911,61 33.4482759,60.5522847 33.4482759,60 C33.4482759,59.4477153 33.8959911,59 34.4482759,59 Z" id="Rectangle-Copy-13" fill="#999999" opacity="0.461704799"></path>
            <path d="M12,59 L25.9783725,59 C26.5306573,59 26.9783725,59.4477153 26.9783725,60 C26.9783725,60.5522847 26.5306573,61 25.9783725,61 L12,61 C11.4477153,61 11,60.5522847 11,60 C11,59.4477153 11.4477153,59 12,59 Z" id="Rectangle-Copy-14" fill="#999999" opacity="0.461704799"></path>
            <g id="Group-11" transform="translate(11.000000, 9.000000)">
                <circle id="Oval" fill="#FFBDBE" cx="15.5" cy="15.5" r="15.5"></circle>
                <polygon id="Path-8" fill="#FFBDBE" points="3.20689655 35.65428 28.7498485 35.65428 22.9044652 20.3103448 8.05116851 20.3103448"></polygon>
                <circle id="Oval" fill="#F47F81" cx="15.5" cy="15.5" r="13.362069"></circle>
                <g id="Group-9" transform="translate(7.482759, 6.413793)" fill="#D8D8D8">
                    <polygon id="Star" points="8.01724138 4.00862069 6.44643596 4.83444197 6.7464331 3.08532443 5.47562483 1.84659252 7.23183867 1.59139971 8.01724138 0 8.80264409 1.59139971 10.5588579 1.84659252 9.28804966 3.08532443 9.58804679 4.83444197"></polygon>
                    <polygon id="Star-Copy-3" points="4.81034483 7.75 3.86786158 8.24549277 4.04785986 7.19602225 3.2853749 6.4527831 4.3391032 6.29966741 4.81034483 5.34482759 5.28158645 6.29966741 6.33531476 6.4527831 5.57282979 7.19602225 5.75282808 8.24549277"></polygon>
                    <polygon id="Star-Copy-5" points="1.60344828 4.54310345 0.660965026 5.03859622 0.84096331 3.98912569 0.0784783446 3.24588654 1.13220665 3.09277086 1.60344828 2.13793103 2.0746899 3.09277086 3.12841821 3.24588654 2.36593324 3.98912569 2.54593153 5.03859622"></polygon>
                    <polygon id="Star-Copy-6" points="14.4310345 4.54310345 13.4885512 5.03859622 13.6685495 3.98912569 12.9060646 3.24588654 13.9597929 3.09277086 14.4310345 2.13793103 14.9022761 3.09277086 15.9560044 3.24588654 15.1935194 3.98912569 15.3735177 5.03859622"></polygon>
                    <polygon id="Star-Copy-4" points="11.2241379 7.75 10.2816547 8.24549277 10.461653 7.19602225 9.699168 6.4527831 10.7528963 6.29966741 11.2241379 5.34482759 11.6953796 6.29966741 12.7491079 6.4527831 11.9866229 7.19602225 12.1666212 8.24549277"></polygon>
                </g>
                <g id="Group-10" opacity="0.600000024" transform="translate(8.551724, 18.172414)" stroke="#D8D8D8" stroke-width="0.6">
                    <path d="M3.30814736,0.3 L2.57031702,2.2742281 L11.3262347,2.2742281 L10.5884044,0.3 L3.30814736,0.3 Z" id="Rectangle"></path>
                    <path d="M1.21379581,2.43793103 L0.406899256,5.04482759 L13.4896525,5.04482759 L12.6827559,2.43793103 L1.21379581,2.43793103 Z" id="Rectangle-Copy-10"></path>
                </g>
            </g>
        </g>
    </g>
</svg>